<mxfile>
    <diagram id="vXy-XztCvaQ1lfc5jfs6" name="第 1 页">
        <mxGraphModel dx="831" dy="1857" grid="1" gridSize="10" guides="1" tooltips="1" connect="1" arrows="1" fold="1" page="1" pageScale="1" pageWidth="827" pageHeight="1169" math="0" shadow="0">
            <root>
                <mxCell id="0"/>
                <mxCell id="1" parent="0"/>
                <mxCell id="2" value="" style="shape=process;whiteSpace=wrap;html=1;backgroundOutline=1;" parent="1" vertex="1">
                    <mxGeometry x="250" y="130" width="180" height="140" as="geometry"/>
                </mxCell>
                <mxCell id="18" value="" style="group" parent="1" vertex="1" connectable="0">
                    <mxGeometry x="450" y="90" width="160" height="440" as="geometry"/>
                </mxCell>
                <mxCell id="19" value="" style="rounded=0;whiteSpace=wrap;html=1;dashed=1;" parent="18" vertex="1">
                    <mxGeometry x="5" width="150" height="440" as="geometry"/>
                </mxCell>
                <mxCell id="20" value="html" style="text;html=1;resizable=0;autosize=1;align=center;verticalAlign=middle;points=[];fillColor=none;strokeColor=none;rounded=0;" parent="18" vertex="1">
                    <mxGeometry x="50" y="190" width="40" height="20" as="geometry"/>
                </mxCell>
                <mxCell id="21" value="intro" style="text;html=1;strokeColor=none;fillColor=none;align=center;verticalAlign=middle;whiteSpace=wrap;rounded=0;" parent="18" vertex="1">
                    <mxGeometry x="50" y="50" width="40" height="20" as="geometry"/>
                </mxCell>
                <mxCell id="22" value="css" style="text;html=1;strokeColor=none;fillColor=none;align=center;verticalAlign=middle;whiteSpace=wrap;rounded=0;" parent="18" vertex="1">
                    <mxGeometry x="50" y="340" width="40" height="20" as="geometry"/>
                </mxCell>
                <mxCell id="23" value="" style="endArrow=none;dashed=1;html=1;" parent="18" edge="1">
                    <mxGeometry width="50" height="50" relative="1" as="geometry">
                        <mxPoint y="140" as="sourcePoint"/>
                        <mxPoint x="160" y="140" as="targetPoint"/>
                    </mxGeometry>
                </mxCell>
                <mxCell id="24" value="" style="endArrow=none;dashed=1;html=1;" parent="18" edge="1">
                    <mxGeometry width="50" height="50" relative="1" as="geometry">
                        <mxPoint y="260" as="sourcePoint"/>
                        <mxPoint x="160" y="260" as="targetPoint"/>
                    </mxGeometry>
                </mxCell>
                <mxCell id="30" value="" style="group" parent="18" vertex="1" connectable="0">
                    <mxGeometry x="7.5" width="145" height="30" as="geometry"/>
                </mxCell>
                <mxCell id="31" value="" style="rounded=0;whiteSpace=wrap;html=1;dashed=1;strokeColor=#000000;" parent="30" vertex="1">
                    <mxGeometry width="145" height="30" as="geometry"/>
                </mxCell>
                <mxCell id="32" value="tabs" style="text;html=1;strokeColor=none;fillColor=none;align=center;verticalAlign=middle;whiteSpace=wrap;rounded=0;dashed=1;" parent="30" vertex="1">
                    <mxGeometry x="50" y="10" width="40" height="20" as="geometry"/>
                </mxCell>
                <mxCell id="36" value="" style="group" parent="1" vertex="1" connectable="0">
                    <mxGeometry x="30" y="-150" width="200" height="440" as="geometry"/>
                </mxCell>
                <mxCell id="16" value="" style="group" parent="36" vertex="1" connectable="0">
                    <mxGeometry x="30" y="20" width="160" height="440" as="geometry"/>
                </mxCell>
                <mxCell id="3" value="" style="rounded=0;whiteSpace=wrap;html=1;dashed=1;" parent="16" vertex="1">
                    <mxGeometry x="5" y="-10" width="150" height="440" as="geometry"/>
                </mxCell>
                <mxCell id="4" value="html" style="text;html=1;resizable=0;autosize=1;align=center;verticalAlign=middle;points=[];fillColor=none;strokeColor=none;rounded=0;" parent="16" vertex="1">
                    <mxGeometry x="50" y="190" width="40" height="20" as="geometry"/>
                </mxCell>
                <mxCell id="5" value="intro" style="text;html=1;strokeColor=none;fillColor=none;align=center;verticalAlign=middle;whiteSpace=wrap;rounded=0;" parent="16" vertex="1">
                    <mxGeometry x="50" y="50" width="40" height="20" as="geometry"/>
                </mxCell>
                <mxCell id="8" value="css" style="text;html=1;strokeColor=none;fillColor=none;align=center;verticalAlign=middle;whiteSpace=wrap;rounded=0;" parent="16" vertex="1">
                    <mxGeometry x="50" y="340" width="40" height="20" as="geometry"/>
                </mxCell>
                <mxCell id="11" value="" style="endArrow=none;dashed=1;html=1;" parent="16" edge="1">
                    <mxGeometry width="50" height="50" relative="1" as="geometry">
                        <mxPoint y="140" as="sourcePoint"/>
                        <mxPoint x="160" y="140" as="targetPoint"/>
                    </mxGeometry>
                </mxCell>
                <mxCell id="14" value="" style="endArrow=none;dashed=1;html=1;" parent="16" edge="1">
                    <mxGeometry width="50" height="50" relative="1" as="geometry">
                        <mxPoint y="260" as="sourcePoint"/>
                        <mxPoint x="160" y="260" as="targetPoint"/>
                    </mxGeometry>
                </mxCell>
                <mxCell id="25" value="" style="rounded=0;whiteSpace=wrap;html=1;dashed=1;strokeColor=#000000;" parent="16" vertex="1">
                    <mxGeometry x="10" y="230" width="145" height="30" as="geometry"/>
                </mxCell>
                <mxCell id="26" value="tabs" style="text;html=1;strokeColor=none;fillColor=none;align=center;verticalAlign=middle;whiteSpace=wrap;rounded=0;dashed=1;" parent="16" vertex="1">
                    <mxGeometry x="60" y="240" width="40" height="20" as="geometry"/>
                </mxCell>
                <mxCell id="35" value="intro底" style="text;html=1;strokeColor=none;fillColor=none;align=center;verticalAlign=middle;whiteSpace=wrap;rounded=0;dashed=1;" parent="36" vertex="1">
                    <mxGeometry y="130" width="40" height="20" as="geometry"/>
                </mxCell>
            </root>
        </mxGraphModel>
    </diagram>
</mxfile>